<svg width="72" height="72" viewBox="0 0 72 72" fill="none" xmlns="http://www.w3.org/2000/svg">
<rect width="72" height="72" rx="20" fill="#262626"/>
<path fill-rule="evenodd" clip-rule="evenodd" d="M28.3463 28.3334C26.1386 28.3334 24.333 30.139 24.333 32.3467V36.4477C25.0566 36.1594 25.8441 36 26.6663 36C30.1653 36 32.9997 38.8344 32.9997 42.3334C32.9997 43.4102 32.7261 44.4383 32.2355 45.3334H43.653C45.8607 45.3334 47.6663 43.5277 47.6663 41.32V40.7334H46.133C44.2536 40.7334 42.4294 39.3591 42.257 37.329C42.1493 36.1794 42.587 35.1054 43.3454 34.36C44.0276 33.6642 44.9628 33.2667 45.973 33.2667H47.6663V32.3467C47.6663 30.139 45.8607 28.3334 43.653 28.3334H28.3463ZM22.333 32.3467C22.333 29.0344 25.034 26.3334 28.3463 26.3334H43.653C46.9653 26.3334 49.6663 29.0344 49.6663 32.3467V34.2667C49.6663 34.819 49.2186 35.2667 48.6663 35.2667H45.973C45.4943 35.2667 45.0732 35.4523 44.7695 35.7643L44.7515 35.7823C44.3968 36.1286 44.1986 36.6216 44.2485 37.1452L44.2496 37.157L44.2496 37.157C44.3201 38.0036 45.1342 38.7334 46.133 38.7334H48.6663C49.2186 38.7334 49.6663 39.1811 49.6663 39.7334V41.32C49.6663 44.6323 46.9653 47.3334 43.653 47.3334H30.173C29.7526 47.3334 29.377 47.0704 29.2333 46.6753C29.0895 46.2802 29.2083 45.8374 29.5304 45.5672C29.8543 45.2955 30.1399 44.9579 30.3626 44.5762L30.3752 44.5551C30.7723 43.9111 30.9997 43.1459 30.9997 42.3334C30.9997 39.939 29.0607 38 26.6663 38C25.651 38 24.7084 38.3558 23.9563 38.9554C23.656 39.1948 23.2451 39.241 22.899 39.0743C22.553 38.9076 22.333 38.5575 22.333 38.1734V32.3467Z" fill="#A4A4A4"/>
<path fill-rule="evenodd" clip-rule="evenodd" d="M38.7997 22.2668C38.7997 21.1901 37.7236 20.4509 36.7274 20.8285L26.1402 24.8287C25.0512 25.2409 24.333 26.2807 24.333 27.4534V33.5467C24.333 34.099 23.8853 34.5467 23.333 34.5467C22.7807 34.5467 22.333 34.099 22.333 33.5467V27.4534C22.333 25.453 23.5617 23.6659 25.4324 22.9581L36.0186 18.9583C38.3291 18.0826 40.7997 19.7968 40.7997 22.2668V27.3334C40.7997 27.8857 40.352 28.3334 39.7997 28.3334C39.2474 28.3334 38.7997 27.8857 38.7997 27.3334V22.2668Z" fill="#A4A4A4"/>
<path fill-rule="evenodd" clip-rule="evenodd" d="M45.9714 35.267C45.4927 35.267 45.0716 35.4526 44.7679 35.7646L44.7499 35.7825C44.3952 36.1288 44.197 36.6218 44.2469 37.1455L44.248 37.1572L44.248 37.1572C44.3185 38.0039 45.1326 38.7336 46.1314 38.7336H48.7218C48.9373 38.7197 49.0781 38.5512 49.0781 38.3737V35.6269C49.0781 35.4494 48.9373 35.2809 48.7218 35.267H45.9714ZM43.3438 34.3602C44.026 33.6645 44.9612 33.267 45.9714 33.267H48.7447C48.7566 33.267 48.7685 33.2672 48.7804 33.2676C50.0511 33.313 51.0781 34.3412 51.0781 35.6269V38.3737C51.0781 39.6594 50.0511 40.6876 48.7804 40.733C48.7685 40.7334 48.7566 40.7336 48.7447 40.7336H46.1314C44.2521 40.7336 42.4279 39.3593 42.2554 37.3292C42.1477 36.1796 42.5854 35.1057 43.3438 34.3602Z" fill="#A4A4A4"/>
<path fill-rule="evenodd" clip-rule="evenodd" d="M28.333 33.0001C28.333 32.4478 28.7807 32.0001 29.333 32.0001H38.6663C39.2186 32.0001 39.6663 32.4478 39.6663 33.0001C39.6663 33.5523 39.2186 34.0001 38.6663 34.0001H29.333C28.7807 34.0001 28.333 33.5523 28.333 33.0001Z" fill="#A4A4A4"/>
<path fill-rule="evenodd" clip-rule="evenodd" d="M26.6663 38.0001C25.651 38.0001 24.7084 38.3559 23.9563 38.9554L23.9546 38.9568L23.9546 38.9568C22.961 39.7451 22.333 40.9661 22.333 42.3334C22.333 43.1459 22.5604 43.9111 22.9575 44.5552L22.9659 44.5688L22.9658 44.5688C23.7122 45.8237 25.0852 46.6667 26.6663 46.6667C27.7633 46.6667 28.7523 46.2667 29.504 45.5901C29.5127 45.5823 29.5215 45.5747 29.5304 45.5672C29.8543 45.2955 30.1399 44.9579 30.3626 44.5762L30.3752 44.5552C30.7723 43.9111 30.9997 43.1459 30.9997 42.3334C30.9997 39.939 29.0607 38.0001 26.6663 38.0001ZM22.7106 37.3907C23.7983 36.524 25.1754 36.0001 26.6663 36.0001C30.1653 36.0001 32.9997 38.8344 32.9997 42.3334C32.9997 43.5166 32.6694 44.6408 32.0839 45.5946C31.7505 46.1633 31.323 46.6713 30.8291 47.0883C29.7157 48.0847 28.2566 48.6667 26.6663 48.6667C24.3571 48.6667 22.3455 47.4329 21.251 45.5981C20.6641 44.6436 20.333 43.5181 20.333 42.3334C20.333 40.3411 21.2513 38.549 22.7106 37.3907Z" fill="#A4A4A4"/>
<path fill-rule="evenodd" clip-rule="evenodd" d="M29.482 40.3471C29.857 40.7525 29.8323 41.3852 29.4269 41.7602L26.5869 44.3868C26.1925 44.7515 25.5806 44.7396 25.2008 44.3598L23.8808 43.0398C23.4903 42.6493 23.4903 42.0161 23.8808 41.6256C24.2713 41.2351 24.9045 41.2351 25.295 41.6256L25.9349 42.2655L28.0689 40.2919C28.4744 39.9169 29.107 39.9416 29.482 40.3471Z" fill="#A4A4A4"/>
</svg>
