<svg width="26" height="30" viewBox="0 0 26 30" fill="none" xmlns="http://www.w3.org/2000/svg">
<path d="M0.588846 29.8071L14.4883 15.3906L0.600491 1C0.22955 1.22405 0 1.7428 0 2.42184V28.399C0.0049749 29.0781 0.226223 29.5589 0.588846 29.8071Z" fill="#B2B2B2"/>
<path d="M13.986 14.5914L18.1262 10.2967L1.26592 0.707523C0.982014 0.536426 0.659527 0.446052 0.331085 0.445557L13.9844 14.5897L13.986 14.5914Z" fill="#B2B2B2"/>
<path d="M13.9866 15.3899L0.290039 29.5961C0.633807 29.6021 0.972416 29.509 1.26812 29.3272L18.1617 19.7123L13.9866 15.3899Z" fill="#B2B2B2"/>
<path d="M24.2344 13.7763L18.6237 10.5793L14.3704 14.9913L18.6553 19.4309L24.2327 16.2425C25.4187 15.5652 25.4187 14.4502 24.2344 13.7763Z" fill="#B2B2B2"/>
</svg>
